# AST/ASF file generated using VICON BodyLanguage
# -----------------------------------------------
:version 1.10
:name VICON
:units
  mass 1.0
  length 0.45
  angle deg
:documentation
   .ast/.asf automatically generated from VICON data using
   VICON BodyBuilder and BodyLanguage model FoxedUp or BRILLIANT.MOD
:root
   order TX TY TZ RX RY RZ
   axis XYZ
   position 0 0 0  
   orientation 0 0 0 
:bonedata
  begin
     id 1 
     name lhipjoint
     direction 0.700308 -0.549349 0.455834 
     length 2.59063 
     axis 0 0 0  XYZ
  end
  begin
     id 2 
     name lfemur
     direction 0.34202 -0.939693 0  
     length 6.31066  
     axis 0 0 20  XYZ
    dof rx ry rz
    limits (-160.0 20.0)
           (-70.0 70.0)
           (-60.0 70.0)
  end
  begin
     id 3 
     name ltibia
     direction 0.34202 -0.939693 0   
     length 7.36093   
     axis 0 0 20   XYZ
    dof rx
    limits (-10.0 170.0)
  end
  begin
     id 4 
     name lfoot
     direction 0.0905332 -0.248738 0.96433   
     length 2.0233   
     axis -90 7.62852e-016 20   XYZ
    dof rx rz
    limits (-45.0 90.0)
           (-70.0 20.0)
  end
  begin
     id 5 
     name ltoes
     direction 1.53573e-011 -4.21855e-011 1   
     length 1.01524   
     axis -90 7.62852e-016 20   XYZ
    dof rx
    limits (-90.0 20.0)
  end
  begin
     id 6 
     name rhipjoint
     direction -0.61416 -0.607328 0.503944   
     length 2.34332  
     axis 0 0 0  XYZ 
  end
  begin
     id 7 
     name rfemur
     direction -0.34202 -0.939693 0   
     length 6.58548   
     axis 0 0 -20   XYZ
    dof rx ry rz
    limits (-160.0 20.0)
           (-70.0 70.0)
           (-70.0 60.0)
  end
  begin
     id 8 
     name rtibia
     direction -0.34202 -0.939693 0   
     length 7.20707   
     axis 0 0 -20   XYZ
    dof rx
    limits (-10.0 170.0)
 end
 begin
     id 9 
     name rfoot
     direction -0.136772 -0.375778 0.916561   
     length 1.92184  
     axis -90 -7.62852e-016 -20   XYZ
    dof rx rz
    limits (-45.0 90.0)
           (-20.0 70.0)
  end
  begin
     id 10 
     name rtoes
     direction -1.53535e-011 -4.21828e-011 1   
     length 0.951089   
     axis -90 -7.62852e-016 -20   XYZ
    dof rx
    limits (-90.0 20.0)
  end
  begin
     id 11 
     name lowerback
     direction -0.0444974 0.988086 -0.147332   
     length 1.9609   
     axis 0 0 0   XYZ
    dof rx ry rz
    limits (-20.0 45.0)
           (-30.0 30.0)
           (-30.0 30.0)
  end
  begin
     id 12 
     name upperback
     direction 0.00613146 0.999513 0.0306081   
     length 1.94944   
     axis 0 0 0   XYZ
    dof rx ry rz
    limits (-20.0 45.0)
           (-30.0 30.0)
           (-30.0 30.0)
  end
  begin
     id 13 
     name thorax
     direction 0.0254621 0.994518 0.101418   
     length 2.0119   
     axis 0 0 0   XYZ
    dof rx ry rz
    limits (-20.0 45.0)
           (-30.0 30.0)
           (-30.0 30.0)
  end
  begin
     id 14 
     name lowerneck
     direction 0.0168698 0.977854 0.208608   
     length 1.6375   
     axis 0 0 0   XYZ
    dof rx ry rz
    limits (-20.0 45.0)
           (-30.0 30.0)
           (-30.0 30.0)
  end
  begin
     id 15 
     name upperneck
     direction -0.0283988 0.989338 -0.142843   
     length 1.6851   
     axis 0 0 0   XYZ
    dof rx ry rz
    limits (-20.0 45.0)
           (-30.0 30.0)
           (-30.0 30.0)
  end
  begin
     id 16
     name head
     direction -0.0129422 0.99741 -0.0707489  
     length 1.69029  
     axis 0 0 0   XYZ
    dof rx ry rz
    limits (-20.0 45.0)
           (-30.0 30.0)
           (-30.0 30.0)
  end
  begin
     id 17 
     name lclavicle
     direction 0.820295 0.564628 -0.0911715  
     length 3.16484  
     axis 0 0 0   XYZ
    dof ry rz
    limits (-20.0 10.0)
           (0.0 20.0)
  end
  begin
     id 18 
     name lhumerus
     direction 1 -4.48969e-011 1.00186e-027   
     length 5.17853   
     axis 180 -30 -90   XYZ
    dof rx ry rz
    limits (-60.0 90.0)
           (-90.0 90.0)
           (-90.0 90.0)
  end
  begin
     id 19
     name lradius
     direction 1 -4.48966e-011 -1.52922e-027   
     length 3.40399   
     axis 180 -30 -90   XYZ
    dof rx
    limits (-10.0 170.0)
  end
  begin
     id 20
     name lwrist
     direction 1 -4.48981e-011 -3.80893e-027   
     length 1.70199   
     axis 1.1049e-015 90 90   XYZ
    dof ry
    limits (-180.0 0.0)
 end
  begin
     id 21 
     name lhand
     direction 1 -4.48957e-011 -7.61786e-027   
     length 0.708964   
     axis 4.86085e-015 90 90   XYZ
    dof rx rz
    limits (-90.0 90.0)
           (-45.0 45.0)
  end
  begin
     id 22 
     name lfingers
     direction 1 -4.48929e-011 -1.52357e-026   
     length 0.571585   
     axis 9.7217e-015 90 90   XYZ
    dof rx
    limits (0.0 90.0)
  end
  begin
     id 23
     name lthumb
     direction 0.707107 -6.34905e-011 0.707107   
     length 0.820685   
     axis -90 45 2.85299e-015   XYZ
    dof rx rz
    limits (-45.0 45.0)
           (-45.0 45.0)
  end
  begin
     id 24 
     name rclavicle
     direction -0.858602 0.463947 -0.218075   
     length 3.35137  
     axis 0 0 0   XYZ 
    dof ry rz
    limits (-10.0 20.0)
           (-20.0 0.0)
  end
  begin
     id 25 
     name rhumerus
     direction -1 -4.48969e-011 -1.98511e-027  
     length 5.42351   
     axis 180 30 90   XYZ
    dof rx ry rz
    limits (-90.0 60.0)
           (-90.0 90.0)
           (-90.0 90.0)
  end
  begin
     id 26 
     name rradius
     direction -1 -4.48961e-011 -2.82624e-027   
     length 3.42066   
     axis 180 30 90   XYZ
    dof rx
    limits (-10.0 170.0)
  end
  begin
     id 27 
     name rwrist
     direction -1 -4.48966e-011 -3.80893e-027   
     length 1.71033   
     axis 1.1049e-015 -90 -90   XYZ
    dof ry
    limits (-180.0 0.0)
  end
  begin
     id 28
     name rhand
     direction -1 -4.48964e-011 -7.61786e-027   
     length 0.743608   
     axis 4.86085e-015 -90 -90   XYZ
    dof rx rz
    limits (-90.0 90.0)
           (-45.0 45.0)
  end
  begin
     id 29
     name rfingers
     direction -1 -4.48961e-011 -1.52357e-026   
     length 0.599516   
     axis 9.7217e-015 -90 -90   XYZ
    dof rx
    limits (0.0 90.0)
  end
  begin
     id 30
     name rthumb
     direction -0.707107 -6.34913e-011 0.707107   
     length 0.860789   
     axis -90 -45 -2.85299e-015   XYZ
    dof rx rz
    limits (-45.0 45.0)
           (-45.0 45.0)
  end
:hierarchy
  begin
    root lhipjoint rhipjoint lowerback
    lhipjoint lfemur
    lfemur ltibia
    ltibia lfoot
    lfoot ltoes
    rhipjoint rfemur
    rfemur rtibia
    rtibia rfoot
    rfoot rtoes
    lowerback upperback
    upperback thorax
    thorax lowerneck lclavicle rclavicle
    lowerneck upperneck
    upperneck head
    lclavicle lhumerus
    lhumerus lradius
    lradius lwrist
    lwrist lhand lthumb
    lhand lfingers
    rclavicle rhumerus
    rhumerus rradius
    rradius rwrist
    rwrist rhand rthumb
    rhand rfingers
  end

#!OML:ASF E:\mmandel\Project 1\Capture day 1\Session 2\Subject.ASF
:FULLY-SPECIFIED
:DEGREES
535
root 8.39714 14.8288 -3.92926 3.68715 80.8343 -371.815
lowerback 26.8618 3.1176 -4.22348
upperback 7.18178 3.37705 -0.190219
thorax -7.04912 1.8591 1.10228
lowerneck -15.6994 2.40745 4.17098
upperneck 1.45075 3.35032 -11.602
head 3.26011 1.24016 -4.0027
rclavicle 2.95195e-014 -3.78685e-014
rhumerus -188.926 -193.222 107.921
rradius 47.9897
rwrist -16.0347
rhand -12.5022 30.0941
rfingers 7.12502
rthumb 13.573 0.556555
lclavicle 2.95195e-014 -3.78685e-014
lhumerus -18.9516 -23.7131 76.0105
lradius 62.6491
lwrist 19.9558
lhand -9.63296 -21.2376
lfingers 7.12502
lthumb 16.3371 8.09429
rfemur -51.0965 -14.5618 9.87496
rtibia 64.6189
rfoot -20.4368 -7.07049
rtoes -21.2724
lfemur -50.971 17.7905 -16.3612
ltibia 63.0682
lfoot -24.9209 -6.71772
ltoes -11.6284
536
root 8.39713 14.894 -3.94312 2.23242 80.9276 -373.524
lowerback 26.8929 3.15598 -4.36512
upperback 7.07209 3.38073 -0.140375
thorax -7.19708 1.86144 1.23187
lowerneck -15.6674 2.29865 4.03218
upperneck 1.52213 3.19898 -11.1638
head 3.24996 1.17913 -3.85522
rclavicle -6.4605e-015 1.97791e-014
rhumerus -189.478 -193.486 107.477
rradius 48.4714
rwrist -15.7937
rhand -12.4535 30.1813
rfingers 7.12502
rthumb 13.6199 0.646906
lclavicle -6.4605e-015 1.97791e-014
lhumerus -19.6071 -21.9781 76.9946
lradius 62.6958
lwrist 19.1484
lhand -9.41374 -21.1565
lfingers 7.12502
lthumb 16.5481 8.15789
rfemur -50.8827 -14.3936 10.0002
rtibia 63.7892
rfoot -19.6946 -7.10286
rtoes -22.3124
lfemur -50.748 17.5745 -16.2408
ltibia 62.108
lfoot -24.4934 -6.29586
ltoes -11.5957
537
root 8.39339 14.9509 -3.95383 0.456836 81.0601 -375.599
lowerback 26.974 3.17537 -4.36409
upperback 6.92174 3.39119 -0.0976442
thorax -7.40894 1.86608 1.26662
lowerneck -15.8779 2.19622 3.71871
upperneck 1.79679 3.09091 -10.5698
head 3.33722 1.13244 -3.62715
rclavicle 5.38706e-014 -2.01766e-014
rhumerus -190.16 -193.453 107.002
rradius 49.1884
rwrist -15.5129
rhand -11.9912 30.0744
rfingers 7.12502
rthumb 14.0655 0.570365
lclavicle 5.38706e-014 -2.01766e-014
lhumerus -20.1696 -20.5415 77.9262
lradius 62.7703
lwrist 18.948
lhand -9.34768 -20.95
lfingers 7.12502
lthumb 16.6117 8.35906
rfemur -50.6958 -14.1252 10.0962
rtibia 62.9399
rfoot -19.0929 -6.79735
rtoes -21.8145
lfemur -50.62 17.3224 -16.0597
ltibia 61.1557
lfoot -24.0181 -5.87352
ltoes -11.9626
538
root 8.3935 15.0134 -3.96655 0.559258 81.0841 -375.85
lowerback 26.8217 3.23894 -4.50553
upperback 6.84927 3.42549 -0.193657
thorax -7.41763 1.88206 1.23435
lowerneck -16.2051 2.05824 3.50709
upperneck 2.04138 2.92873 -10.1559
head 3.43734 1.05229 -3.47643
rclavicle -2.50469e-014 1.17283e-014
rhumerus -190.683 -193.284 106.52
rradius 49.825
rwrist -15.2977
rhand -11.6549 30.0864
rfingers 7.12502
rthumb 14.3896 0.605166
lclavicle -2.50469e-014 1.17283e-014
lhumerus -20.5239 -19.3856 78.7623
lradius 62.8191
lwrist 19.3843
lhand -9.47755 -20.6352
lfingers 7.12502
lthumb 16.4867 8.6843
rfemur -50.535 -13.8295 9.83911
rtibia 62.1183
rfoot -18.6161 -5.87555
rtoes -20.064
lfemur -50.5085 17.1427 -16.2276
ltibia 60.2214
lfoot -23.6417 -5.39888
ltoes -12.312
539
root 8.39714 15.081 -3.97901 0.88734 81.0408 -375.86
lowerback 26.5855 3.32271 -4.7815
upperback 6.80312 3.45781 -0.281898
thorax -7.36187 1.898 1.29277
lowerneck -16.3649 1.93757 3.64563
upperneck 2.06186 2.72734 -10.0151
head 3.45252 0.955414 -3.47143
rclavicle -1.15295e-014 1.15295e-014
rhumerus -191.121 -193.313 106.055
rradius 50.4719
rwrist -15.1878
rhand -11.5083 30.2522
rfingers 7.12502
rthumb 14.5308 0.781129
lclavicle -1.15295e-014 1.15295e-014
lhumerus -20.8669 -18.1713 79.5552
lradius 62.8542
lwrist 19.7388
lhand -9.92617 -20.5555
lfingers 7.12502
lthumb 16.0547 8.79936
rfemur -50.4051 -13.5969 9.63343
rtibia 61.3014
rfoot -17.9996 -5.28226
rtoes -20.3913
lfemur -50.3334 17.067 -16.4271
ltibia 59.2892
lfoot -23.2809 -5.10662
ltoes -12.2299
540
root 8.40044 15.1378 -3.99143 -0.461401 81.0788 -377.48
lowerback 26.4803 3.32312 -4.75069
upperback 6.70994 3.45947 -0.307587
thorax -7.41137 1.89694 1.24815
lowerneck -16.1768 1.78155 3.65348
upperneck 1.9235 2.47933 -9.67322
head 3.3558 0.855553 -3.3856
rclavicle 6.55989e-015 2.68359e-014
rhumerus -191.716 -193.419 105.546
rradius 51.1485
rwrist -15.0809
rhand -11.3748 30.4221
rfingers 7.12502
rthumb 14.6594 0.960264
lclavicle 6.55989e-015 2.68359e-014
lhumerus -21.3334 -17.0211 80.318
lradius 62.9484
lwrist 19.9829
lhand -10.4928 -20.6322
lfingers 7.12502
lthumb 15.509 8.76577
rfemur -50.2304 -13.4431 9.73648
rtibia 60.5088
rfoot -17.371 -5.09132
rtoes -21.9212
lfemur -50.1339 16.8576 -16.2666
ltibia 58.4216
lfoot -22.9277 -4.99965
ltoes -11.6928
541
root 8.40518 15.1855 -4.00434 -1.27482 81.1767 -378.548
lowerback 26.4103 3.29845 -4.67168
upperback 6.61244 3.43664 -0.374649
thorax -7.4766 1.88414 1.13672
lowerneck -15.8893 1.58865 3.45705
upperneck 1.75644 2.22221 -9.30639
head 3.23295 0.753349 -3.25873
rclavicle 3.57812e-015 -3.97569e-015
rhumerus -192.35 -193.387 105.011
rradius 51.708
rwrist -14.8944
rhand -11.2584 30.7058
rfingers 7.12502
rthumb 14.7716 1.25222
lclavicle 3.57812e-015 -3.97569e-015
lhumerus -21.7701 -15.9832 81.0383
lradius 63.0614
lwrist 20.2871
lhand -10.8825 -20.8041
lfingers 7.12502
lthumb 15.1337 8.6226
rfemur -50.0318 -13.3661 9.72427
rtibia 59.7425
rfoot -16.8218 -4.80774
rtoes -22.9248
lfemur -49.9279 16.3893 -16.1226
ltibia 57.5923
lfoot -22.6591 -4.70227
ltoes -11.2654
542
root 8.40957 15.2334 -4.0137 -1.16194 81.1742 -378.657
lowerback 26.3674 3.36251 -4.85469
upperback 6.52939 3.45899 -0.43708
thorax -7.55429 1.8964 1.16383
lowerneck -15.8161 1.44726 3.45313
upperneck 1.68852 2.02143 -9.19011
head 3.18541 0.66216 -3.23691
rclavicle 1.41137e-014 -4.17448e-014
rhumerus -192.939 -193.31 104.502
rradius 52.2963
rwrist -14.6472
rhand -11.1894 30.9789
rfingers 7.12502
rthumb 14.8381 1.53017
lclavicle 1.41137e-014 -4.17448e-014
lhumerus -22.1387 -15.0447 81.7515
lradius 63.2329
lwrist 20.5177
lhand -11.2607 -20.7904
lfingers 7.12502
lthumb 14.7694 8.66332
rfemur -49.8216 -13.1541 9.52302
rtibia 59.0171
rfoot -16.4383 -4.39307
rtoes -23.2769
lfemur -49.7012 16.1114 -16.1369
ltibia 56.8213
lfoot -22.5177 -4.44113
ltoes -11.1548
543
root 8.41167 15.2877 -4.02041 -2.05933 81.0775 -379.819
lowerback 26.2073 3.42487 -4.97513
upperback 6.48032 3.50942 -0.43541
thorax -7.53867 1.91986 1.22358
lowerneck -16.0794 1.36442 3.44353
upperneck 1.8384 1.89932 -8.94137
head 3.25908 0.602445 -3.16815
rclavicle -1.59028e-014 1.47101e-014
rhumerus -193.424 -193.289 104.019
rradius 53.0132
rwrist -14.4985
rhand -11.1292 31.0198
rfingers 7.12502
rthumb 14.896 1.57537
lclavicle -1.59028e-014 1.47101e-014
lhumerus -22.4166 -14.1565 82.3937
lradius 63.5087
lwrist 20.8333
lhand -11.5968 -20.5196
lfingers 7.12502
lthumb 14.4455 8.95759
rfemur -49.6149 -12.8143 9.52997
rtibia 58.2329
rfoot -16.1681 -4.00986
rtoes -23.6557
lfemur -49.5411 16.1818 -16.0484
ltibia 56.0585
lfoot -22.418 -4.39243
ltoes -11.5387
544
root 8.414 15.3173 -4.0221 -3.17033 81.0614 -381.212
lowerback 25.9982 3.43273 -4.99157
upperback 6.46559 3.52181 -0.460308
thorax -7.45098 1.92366 1.211
lowerneck -16.3697 1.26599 3.16749
upperneck 2.0261 1.77902 -8.29663
head 3.3398 0.558385 -2.93314
rclavicle -8.74653e-015 -3.61788e-014
rhumerus -193.817 -193.227 103.514
rradius 53.6772
rwrist -14.3808
rhand -10.9294 31.1289
rfingers 7.12502
rthumb 15.0885 1.69878
lclavicle -8.74653e-015 -3.61788e-014
lhumerus -22.5135 -13.4036 82.918
lradius 63.688
lwrist 21.2142
lhand -11.9822 -20.5941
lfingers 7.12502
lthumb 14.0742 8.90929
rfemur -49.4712 -12.4968 9.53413
rtibia 57.5221
rfoot -16.0341 -3.63871
rtoes -24.2276
lfemur -49.4286 15.6781 -15.7166
ltibia 55.4117
lfoot -22.2611 -3.81151
ltoes -11.9809
545
root 8.41526 15.355 -4.02138 -3.37549 81.083 -381.645
lowerback 25.906 3.48072 -5.12248
upperback 6.39413 3.542 -0.522056
thorax -7.48851 1.93403 1.21275
lowerneck -16.186 1.08968 2.96932
upperneck 1.88399 1.54198 -7.85298
head 3.24551 0.465988 -2.78058
rclavicle -3.37934e-014 -1.43125e-014
rhumerus -194.341 -193.121 102.975
rradius 54.269
rwrist -14.1679
rhand -10.6832 31.3464
rfingers 7.12502
rthumb 15.3257 1.93432
lclavicle -3.37934e-014 -1.43125e-014
lhumerus -22.6164 -13.0247 83.4336
lradius 63.6659
lwrist 21.4511
lhand -12.7979 -21.3104
lfingers 7.12502
lthumb 13.288 8.24596
rfemur -49.2311 -12.1208 9.33936
rtibia 56.7437
rfoot -16.0332 -3.32955
rtoes -23.9666
lfemur -49.2807 15.4306 -15.6401
ltibia 54.7307
lfoot -21.9614 -3.56297
ltoes -11.9186
